#N canvas -16 -16 3840 1955 12;
#X obj 920 10 inlet Fc;
#X text 466 108 b0 = (1 - cos(w0))/2 \; b1 = 1 - cos(w0) \; b2 = (1
- cos(w0))/2 \; a0 = 1 + alpha \; a1 = -2*cos(w0) \; a2 = 1 - alpha
\; alpha = sin(w0)/(2*Q) \;;
#X obj 1364 71 hsl 128 15 0.707 10 0 0 empty empty empty -2 -8 0 10
-262144 -1 -1 0 1;
#X obj 1063 81 hsl 128 15 1000 3000 1 0 empty empty empty -2 -8 0 10
-262144 -1 -1 0 1;
#X floatatom 1361 104 5 0 0 0 - - -;
#X floatatom 1035 187 5 0 0 0 - - -;
#X obj 819 423 cos~;
#X obj 779 161 osc~ 100;
#X obj 826 482 *~ -2;
#X obj 772 482 *~ -1;
#X obj 772 505 +~ 1;
#X obj 772 528 /~ 2;
#X obj 972 400 cos~;
#X obj 972 423 /~ 2;
#X obj 972 446 /~;
#X obj 947 493 +~ 1;
#X obj 994 493 *~ -1;
#X obj 994 516 +~ 1;
#X text 1013 459 <--- alpha;
#X obj 834 213 *~;
#X obj 848 126 inlet ModDepth;
#X obj 679 56 inlet ModFreq;
#X obj 783 58 hsl 128 15 0.1 100 1 0 empty empty empty -2 -8 0 10 -262144
-1 -1 25500 1;
#X floatatom 785 116 5 0 0 0 - - -;
#X obj 861 150 hsl 128 15 0.01 2000 1 0 empty empty empty -2 -8 0 10
-262144 -1 -1 0 1;
#X floatatom 851 184 5 0 0 0 - - -;
#X obj 856 249 +~;
#X obj 588 574 outlet~ b0;
#X obj 747 610 outlet~ b2;
#X obj 667 593 outlet~ b1;
#X obj 830 636 outlet~ a0;
#X obj 922 654 outlet~ a1;
#X obj 1018 691 outlet~ a2;
#X obj 972 329 /~ 44100;
#X obj 972 377 -~ 0.25;
#X obj 1203 20 inlet Q;
#X obj 1378 138 inlet~ QMod;
#X obj 1341 183 +~;
#X obj 944 295 +~;
#X obj 1246 137 inlet~ FcMod;
#X connect 0 0 5 0;
#X connect 2 0 4 0;
#X connect 3 0 5 0;
#X connect 4 0 37 0;
#X connect 5 0 26 1;
#X connect 6 0 8 0;
#X connect 6 0 9 0;
#X connect 7 0 19 0;
#X connect 8 0 31 0;
#X connect 9 0 10 0;
#X connect 10 0 11 0;
#X connect 10 0 29 0;
#X connect 11 0 27 0;
#X connect 11 0 28 0;
#X connect 12 0 13 0;
#X connect 13 0 14 0;
#X connect 14 0 15 0;
#X connect 14 0 16 0;
#X connect 15 0 30 0;
#X connect 16 0 17 0;
#X connect 17 0 32 0;
#X connect 19 0 26 0;
#X connect 20 0 25 0;
#X connect 21 0 23 0;
#X connect 22 0 23 0;
#X connect 23 0 7 0;
#X connect 24 0 25 0;
#X connect 25 0 19 1;
#X connect 26 0 38 0;
#X connect 33 0 34 0;
#X connect 33 0 6 0;
#X connect 34 0 12 0;
#X connect 35 0 4 0;
#X connect 36 0 37 1;
#X connect 37 0 14 1;
#X connect 38 0 33 0;
#X connect 39 0 38 1;
#X coords 0 244.375 0.35 244.125 400 200 0;
