#N canvas -16 -16 3840 1955 12;
#X obj 909 76 inlet Fc;
#X obj 1279 46 inlet Q;
#X text 712 103 b0 = (1 - cos(w0))/2 \; b1 = 1 - cos(w0) \; b2 = (1
- cos(w0))/2 \; a0 = 1 + alpha \; a1 = -2*cos(w0) \; a2 = 1 - alpha
\; alpha = sin(w0)/(2*Q) \;;
#X obj 1000 262 * 0.00014248;
#X obj 999 312 cos;
#X obj 964 414 -;
#X obj 964 461 / 2;
#X floatatom 912 675 7 0 0 0 - - -;
#X msg 957 362 1;
#X obj 1102 315 - 1.5708;
#X obj 1108 352 cos;
#X obj 1113 386 / 2;
#X obj 1116 427 /;
#X floatatom 1164 474 7 0 0 0 - - -;
#X obj 1084 481 +;
#X msg 1050 357 1;
#X floatatom 1092 535 7 0 0 0 - - -;
#X obj 1034 494 -;
#X floatatom 1032 541 7 0 0 0 - - -;
#X obj 1364 71 hsl 128 15 0.707 10 0 0 empty empty empty -2 -8 0 10
-262144 -1 -1 0 1;
#X obj 1063 81 hsl 128 15 1000 3000 1 0 empty empty empty -2 -8 0 10
-262144 -1 -1 0 1;
#X floatatom 1361 104 5 0 0 0 - - -;
#X floatatom 1035 187 5 0 0 0 - - -;
#X obj 1127 138 bng 15 250 50 0 empty empty empty 17 7 0 10 -262144
-1 -1;
#X obj 1006 348 * -2;
#X floatatom 975 524 7 0 0 0 - - -;
#X obj 991 635 bng 15 250 50 0 empty empty empty 17 7 0 10 -262144
-1 -1;
#X floatatom 946 741 7 0 0 0 - - -;
#X obj 1265 844 outlet b0;
#X floatatom 839 506 7 0 0 0 - - -;
#X obj 946 718 /;
#X obj 840 581 /;
#X floatatom 840 604 7 0 0 0 - - -;
#X obj 1351 867 outlet b1;
#X obj 1438 880 outlet b2;
#X obj 1100 698 /;
#X floatatom 1100 721 7 0 0 0 - - -;
#X obj 1101 791 outlet a1;
#X obj 1216 660 /;
#X floatatom 1216 683 7 0 0 0 - - -;
#X obj 1177 814 outlet a2;
#X text 1293 778 -a1 \, -a2 \, b0 \, b1 \, b2;
#X obj 1102 753 * -1;
#X obj 1209 718 * -1;
#X connect 0 0 22 0;
#X connect 1 0 21 0;
#X connect 3 0 4 0;
#X connect 3 0 9 0;
#X connect 4 0 5 1;
#X connect 4 0 8 0;
#X connect 4 0 24 0;
#X connect 5 0 6 0;
#X connect 5 0 29 0;
#X connect 6 0 7 0;
#X connect 7 0 30 0;
#X connect 8 0 5 0;
#X connect 9 0 10 0;
#X connect 10 0 11 0;
#X connect 11 0 12 0;
#X connect 12 0 13 0;
#X connect 12 0 14 1;
#X connect 12 0 17 1;
#X connect 14 0 16 0;
#X connect 15 0 14 0;
#X connect 15 0 17 0;
#X connect 16 0 30 1;
#X connect 16 0 31 1;
#X connect 16 0 35 1;
#X connect 16 0 38 1;
#X connect 16 0 26 0;
#X connect 17 0 18 0;
#X connect 18 0 38 0;
#X connect 19 0 21 0;
#X connect 20 0 22 0;
#X connect 21 0 12 1;
#X connect 21 0 23 0;
#X connect 21 0 15 0;
#X connect 22 0 3 0;
#X connect 22 0 15 0;
#X connect 23 0 22 0;
#X connect 24 0 25 0;
#X connect 25 0 35 0;
#X connect 26 0 7 0;
#X connect 26 0 29 0;
#X connect 26 0 25 0;
#X connect 26 0 18 0;
#X connect 27 0 28 0;
#X connect 27 0 34 0;
#X connect 29 0 31 0;
#X connect 30 0 27 0;
#X connect 31 0 32 0;
#X connect 32 0 33 0;
#X connect 35 0 36 0;
#X connect 36 0 42 0;
#X connect 38 0 39 0;
#X connect 39 0 43 0;
#X connect 42 0 37 0;
#X connect 43 0 40 0;
#X coords 0 977.5 1 976.5 400 200 0;
