#N canvas -16 -16 3840 1955 12;
#X obj 236 188 inlet~ a;
#X obj 401 221 inlet~ c;
#X text 592 92 [-b +/- sqrt(b^2-4ac)] /2/a;
#X text 593 115 argument to sqrt is negative when 4ac > b^2;
#X obj 401 244 *~ 4;
#X obj 358 291 *~;
#X obj 310 208 inlet~ b;
#X obj 290 292 *~;
#X obj 329 342 -~;
#X obj 356 378 *~ -1;
#X obj 280 415 sqrt~;
#X obj 356 406 sqrt~;
#X obj 220 415 *~ -1;
#X obj 180 567 outlet~ real1;
#X obj 220 467 +~;
#X obj 267 467 -~;
#X obj 220 490 /~ 2;
#X obj 220 513 /~;
#X obj 267 490 /~ 2;
#X obj 267 513 /~;
#X obj 280 586 outlet~ real2;
#X obj 447 509 /~;
#X obj 382 487 /~ 2;
#X obj 382 510 /~;
#X obj 380 608 outlet~ imag1;
#X obj 483 631 outlet~ imag2;
#X obj 447 486 /~ -2;
#X connect 0 0 5 0;
#X connect 0 0 19 1;
#X connect 0 0 17 1;
#X connect 0 0 21 1;
#X connect 0 0 23 1;
#X connect 1 0 4 0;
#X connect 4 0 5 1;
#X connect 5 0 8 1;
#X connect 6 0 7 0;
#X connect 6 0 12 0;
#X connect 6 0 7 1;
#X connect 7 0 8 0;
#X connect 8 0 9 0;
#X connect 8 0 10 0;
#X connect 9 0 11 0;
#X connect 10 0 14 1;
#X connect 10 0 15 1;
#X connect 11 0 22 0;
#X connect 11 0 26 0;
#X connect 12 0 14 0;
#X connect 12 0 15 0;
#X connect 14 0 16 0;
#X connect 15 0 18 0;
#X connect 16 0 17 0;
#X connect 17 0 13 0;
#X connect 18 0 19 0;
#X connect 19 0 20 0;
#X connect 21 0 25 0;
#X connect 22 0 23 0;
#X connect 23 0 24 0;
#X connect 26 0 21 0;
